<svg width="21" height="19" viewBox="0 0 21 19" fill="none" xmlns="http://www.w3.org/2000/svg">
    <path d="M16.8916 12.8046C16.8916 12.8046 16.709 11.3666 15.4536 11.3666H6.34633C5.82135 11.3666 5.31919 11.2525 4.86269 11.0242C3.58447 10.3851 1.59868 8.78735 4.08663 5.77441C4.08663 5.77441 4.08663 7.39501 5.70722 7.39501H14.7004C15.2254 7.39501 15.7275 7.50913 16.184 7.73739C17.2796 8.30802 18.7633 9.70036 16.8916 12.8046Z" fill="url(#paint0_linear_447_1132)"/>
    <path d="M0.000915527 18.58H15.7047C15.7047 18.58 17.8731 18.58 19.4937 16.4116C20.4523 15.1334 20.886 13.5128 20.5893 11.9378C20.2241 10.2259 19.1741 9.13032 18.3981 8.49121C18.3981 8.49121 19.8361 12.0519 17.234 13.878C16.5036 14.3801 15.6134 14.6084 14.7004 14.6084H2.16931L0.000915527 18.58Z" fill="url(#paint1_linear_447_1132)"/>
    <path d="M20.6806 0H4.97681C4.97681 0 2.80841 0 1.18782 2.1684C0.229161 3.44661 -0.204519 5.06721 0.0922093 6.64215C0.457413 8.35404 1.50737 9.44965 2.28343 10.1116C2.28343 10.1116 0.845443 6.55085 3.44752 4.72483C4.17793 4.19985 5.09094 3.97159 5.98112 3.97159H18.5122L20.6806 0Z" fill="url(#paint2_linear_447_1132)"/>
    <defs>
        <linearGradient id="paint0_linear_447_1132" x1="10.6888" y1="13.3541" x2="9.98045" y2="5.25763" gradientUnits="userSpaceOnUse">
            <stop stop-color="#FF83DA"/>
            <stop offset="0.2538" stop-color="#FF14C7"/>
            <stop offset="0.332" stop-color="#F615C9"/>
            <stop offset="0.4613" stop-color="#DD16CD"/>
            <stop offset="0.6256" stop-color="#B419D4"/>
            <stop offset="0.8164" stop-color="#7C1DDE"/>
            <stop offset="0.9362" stop-color="#5520E5"/>
        </linearGradient>
        <linearGradient id="paint1_linear_447_1132" x1="8.64509" y1="21.3951" x2="13.3725" y2="6.84563" gradientUnits="userSpaceOnUse">
            <stop offset="0.1373" stop-color="#FD14C7"/>
            <stop offset="0.2477" stop-color="#EF15C9"/>
            <stop offset="0.4549" stop-color="#CB18D0"/>
            <stop offset="0.734" stop-color="#921CDA"/>
            <stop offset="1" stop-color="#5520E5"/>
        </linearGradient>
        <linearGradient id="paint2_linear_447_1132" x1="2.95055" y1="10.7227" x2="16.2205" y2="-4.01505" gradientUnits="userSpaceOnUse">
            <stop offset="0.225" stop-color="#FF14C7"/>
            <stop offset="0.3139" stop-color="#F615C9"/>
            <stop offset="0.4607" stop-color="#DD16CD"/>
            <stop offset="0.6473" stop-color="#B419D4"/>
            <stop offset="0.864" stop-color="#7C1DDE"/>
            <stop offset="1" stop-color="#5520E5"/>
        </linearGradient>
    </defs>
</svg>
