<svg xmlns="http://www.w3.org/2000/svg" width="158" height="19" viewBox="0 0 158 19" fill="none">
    <path d="M16.8916 12.805C16.8916 12.805 16.709 11.367 15.4536 11.367H6.34633C5.82135 11.367 5.31919 11.2528 4.86269 11.0246C3.58447 10.3855 1.59868 8.78771 4.08663 5.77478C4.08663 5.77478 4.08663 7.39537 5.70722 7.39537H14.7004C15.2254 7.39537 15.7275 7.5095 16.184 7.73775C17.2796 8.30838 18.7633 9.70072 16.8916 12.805Z" fill="url(#paint0_linear_18_509)"/>
    <path d="M0.000915527 18.5798H15.7047C15.7047 18.5798 17.8731 18.5798 19.4937 16.4114C20.4523 15.1331 20.886 13.5126 20.5893 11.9376C20.2241 10.2257 19.1741 9.1301 18.3981 8.491C18.3981 8.491 19.8361 12.0517 17.234 13.8778C16.5036 14.3799 15.6134 14.6082 14.7004 14.6082H2.16931L0.000915527 18.5798Z" fill="url(#paint1_linear_18_509)"/>
    <path d="M20.6806 0H4.97681C4.97681 0 2.80841 0 1.18782 2.1684C0.229161 3.44661 -0.204519 5.06721 0.0922093 6.64215C0.457413 8.35404 1.50737 9.44965 2.28343 10.1116C2.28343 10.1116 0.845443 6.55085 3.44752 4.72483C4.17793 4.19985 5.09094 3.97159 5.98112 3.97159H18.5122L20.6806 0Z" fill="url(#paint2_linear_18_509)"/>
    <path d="M27.3684 11.6181L30.0846 12.0746C30.1302 13.1245 31.6139 13.8321 34.3529 13.8321C37.2745 13.8549 39.1462 13.3299 39.1462 12.0061C39.1462 8.87902 27.6195 12.143 27.6195 6.66497C27.6195 4.04007 30.3585 2.55643 34.3301 2.55643C38.5528 2.55643 41.3603 4.29115 41.4059 6.9617L38.6897 6.5052C38.6669 5.43241 37.2289 4.74765 34.5355 4.72483C31.9106 4.72483 30.29 5.24981 30.29 6.43672C30.29 9.28988 41.7939 6.23129 41.7939 11.892C41.7939 14.5169 38.8723 16.0233 34.5812 16.0233C30.1531 16.0233 27.2999 14.243 27.3684 11.6181Z" fill="#ffffff"/>
    <path d="M43.62 4.0629C43.62 3.05859 44.2362 2.60208 45.2177 2.60208C46.222 2.60208 46.8611 3.08141 46.8611 4.0629C46.8611 5.06721 46.2449 5.54654 45.2177 5.54654C44.2591 5.54654 43.62 5.06721 43.62 4.0629ZM43.9623 7.57799L46.5644 7.12148V15.7494H43.9623V7.57799Z" fill="#ffffff"/>
    <path d="M53.5946 4.0629C53.5946 3.05859 54.2109 2.60208 55.1924 2.60208C56.1967 2.60208 56.8358 3.08141 56.8358 4.0629C56.8358 5.06721 56.2195 5.54654 55.1924 5.54654C54.2109 5.54654 53.5946 5.06721 53.5946 4.0629ZM53.937 7.57799L56.5391 7.12148V15.7494H53.937V7.57799Z" fill="#ffffff"/>
    <path d="M49.098 3.30965L51.7001 2.85315V15.7266H49.098V3.30965Z" fill="#ffffff"/>
    <path d="M58.8216 11.1387C58.8216 8.17144 60.99 6.25412 64.4594 6.25412C66.1257 6.25412 66.9702 6.5965 68.4538 7.25843L68.6821 9.404C67.3811 8.6736 66.217 8.26274 64.9388 8.26274C62.5877 8.26274 61.378 9.08445 61.378 11.1615C61.378 13.2158 62.6334 14.0375 65.0072 14.0375C66.3996 14.0375 67.5408 13.6952 68.6821 12.9647L68.4538 15.0647C66.9702 15.7266 66.2626 16.069 64.4594 16.069C61.1269 16.0233 58.8216 14.0832 58.8216 11.1387Z" fill="#ffffff"/>
    <path d="M70.0744 11.1387C70.0744 8.19427 72.3798 6.25412 75.8264 6.25412C79.2958 6.25412 81.6012 8.19427 81.6012 11.1387C81.6012 14.0832 79.2958 16.0233 75.8264 16.0233C72.357 16.0233 70.0744 14.0832 70.0744 11.1387ZM79.1817 11.1387C79.1817 9.404 77.835 8.23992 75.8264 8.23992C73.8406 8.23992 72.4939 9.404 72.4939 11.1387C72.4939 12.8506 73.8406 14.0147 75.8264 14.0147C77.835 14.0147 79.1817 12.8506 79.1817 11.1387Z" fill="#ffffff"/>
    <path d="M83.5413 6.98453L86.4173 6.52802L86.2119 10.317L86.2804 8.7649C86.6684 6.89323 87.9466 6.23129 90.7313 6.23129C93.3334 6.27694 94.5659 7.71493 94.5659 11.7322V15.7266H91.9638V12.0517C91.9638 9.26705 91.2334 8.21709 89.4531 8.21709C87.4673 8.21709 86.1891 10.1801 86.1891 13.193V15.7266H83.5413V6.98453Z" fill="#ffffff"/>
    <path d="M154.231 6.23129C151.446 6.23129 149.826 7.03018 149.438 8.90185V8.99315C148.936 7.053 147.772 6.27694 145.9 6.25412C143.184 6.25412 141.883 6.89322 141.472 8.69642L141.586 6.55085L138.71 7.00735V15.7494H141.312V13.193C141.312 10.1801 142.59 8.21709 144.576 8.21709C146.356 8.21709 147.087 9.28988 147.087 12.0517V15.7266H149.689V13.056C149.735 10.1116 150.944 8.19426 152.884 8.19426C154.665 8.19426 155.395 9.26705 155.395 12.0289V15.7038H157.997V11.7322C158.066 7.73776 156.833 6.27694 154.231 6.23129Z" fill="#ffffff"/>
    <path d="M96.643 15.3157V13.2158C98.1951 13.8093 99.5418 14.0147 101.162 14.0147C103.445 14.0147 104.426 13.7865 104.426 13.0104C104.426 11.0474 96.255 13.3071 96.255 9.3127C96.255 7.25843 98.4234 6.25412 101.665 6.25412C102.76 6.25412 104.655 6.45955 106.275 6.7791L106.047 8.81055C104.746 8.53664 103.331 8.33122 101.961 8.33122C99.7929 8.33122 98.8342 8.65077 98.8342 9.28988C98.8342 11.0702 107.029 9.01597 107.029 13.0332C107.029 15.1788 104.86 16.069 101.619 16.069C100.158 16.0233 98.1723 15.7494 96.643 15.3157Z" fill="#ffffff"/>
    <path d="M108.991 12.4169V8.42251H107.668V6.52801H109.128V4.31397L111.594 3.94876V6.52801H114.241V8.42251H111.616V11.8691C111.616 13.7408 111.616 13.5125 113.283 13.5125C113.557 13.5125 114.104 13.4897 114.492 13.4669L113.808 15.5212C113.032 15.7722 112.758 15.8864 111.753 15.8864C109.357 15.9092 108.991 15.0418 108.991 12.4169Z" fill="#ffffff"/>
    <path d="M115.474 11.1387C115.474 8.19427 117.779 6.25412 121.226 6.25412C124.695 6.25412 127.001 8.19427 127.001 11.1387C127.001 14.0832 124.695 16.0233 121.226 16.0233C117.779 16.0233 115.474 14.0832 115.474 11.1387ZM124.581 11.1387C124.581 9.404 123.234 8.23992 121.226 8.23992C119.24 8.23992 117.893 9.404 117.893 11.1387C117.893 12.8506 119.24 14.0147 121.226 14.0147C123.234 14.0147 124.581 12.8506 124.581 11.1387Z" fill="#ffffff"/>
    <path d="M128.964 6.98453L131.84 6.52802L131.657 10.317L131.748 8.49099C132.113 6.7791 133.551 6.23129 136.998 6.23129L136.542 8.42252C132.684 8.42252 131.588 9.67791 131.588 12.6452V15.7266H128.964V6.98453Z" fill="#ffffff"/>
    <defs>
        <linearGradient id="paint0_linear_18_509" x1="10.6888" y1="13.3545" x2="9.98045" y2="5.25799" gradientUnits="userSpaceOnUse">
            <stop stop-color="#FF83DA"/>
            <stop offset="0.2538" stop-color="#FF14C7"/>
            <stop offset="0.332" stop-color="#F615C9"/>
            <stop offset="0.4613" stop-color="#DD16CD"/>
            <stop offset="0.6256" stop-color="#B419D4"/>
            <stop offset="0.8164" stop-color="#7C1DDE"/>
            <stop offset="0.9362" stop-color="#5520E5"/>
        </linearGradient>
        <linearGradient id="paint1_linear_18_509" x1="8.64509" y1="21.3949" x2="13.3725" y2="6.84541" gradientUnits="userSpaceOnUse">
            <stop offset="0.1373" stop-color="#FD14C7"/>
            <stop offset="0.2477" stop-color="#EF15C9"/>
            <stop offset="0.4549" stop-color="#CB18D0"/>
            <stop offset="0.734" stop-color="#921CDA"/>
            <stop offset="1" stop-color="#5520E5"/>
        </linearGradient>
        <linearGradient id="paint2_linear_18_509" x1="2.95055" y1="10.7227" x2="16.2205" y2="-4.01505" gradientUnits="userSpaceOnUse">
            <stop offset="0.225" stop-color="#FF14C7"/>
            <stop offset="0.3139" stop-color="#F615C9"/>
            <stop offset="0.4607" stop-color="#DD16CD"/>
            <stop offset="0.6473" stop-color="#B419D4"/>
            <stop offset="0.864" stop-color="#7C1DDE"/>
            <stop offset="1" stop-color="#5520E5"/>
        </linearGradient>
    </defs>
</svg>
